<svg width="2994" height="615" xmlns="http://www.w3.org/2000/svg" xmlns:xlink="http://www.w3.org/1999/xlink" overflow="hidden"><defs><clipPath id="clip0"><rect x="106" y="1043" width="2994" height="615"/></clipPath></defs><g clip-path="url(#clip0)" transform="translate(-106 -1043)"><path d="M120.5 1073.98C120.5 1058.25 133.25 1045.5 148.978 1045.5L3069.02 1045.5C3084.75 1045.5 3097.5 1058.25 3097.5 1073.98L3097.5 1626.02C3097.5 1641.75 3084.75 1654.5 3069.02 1654.5L148.978 1654.5C133.25 1654.5 120.5 1641.75 120.5 1626.02Z" stroke="#000000" stroke-width="4.58333" stroke-miterlimit="8" fill="#D9D9D9" fill-rule="evenodd"/><text font-family="Calibri,Calibri_MSFontService,sans-serif" font-weight="700" font-size="92" transform="matrix(1 0 0 1 161.596 1381)">Inverse FFD</text><path d="M1022 1102.5C949.927 1102.5 891.5 1161.15 891.5 1233.5 891.5 1305.85 949.927 1364.5 1022 1364.5 1094.07 1364.5 1152.5 1305.85 1152.5 1233.5 1152.5 1161.15 1094.07 1102.5 1022 1102.5ZM943.906 1227.6C940.2 1226.81 937.833 1223.16 938.617 1219.43 942.574 1200.81 960.818 1188.94 979.368 1192.91 992.615 1195.75 1002.96 1206.14 1005.79 1219.43 1006.44 1223.19 1003.93 1226.75 1000.19 1227.4 996.654 1228.02 993.241 1225.79 992.363 1222.3 990.006 1211.12 979.071 1203.98 967.938 1206.34 959.963 1208.04 953.732 1214.29 952.045 1222.3 951.255 1226.02 947.614 1228.39 943.906 1227.6ZM1090.1 1289.42C1061.23 1327.17 1007.33 1334.28 969.717 1305.29 963.777 1300.72 958.46 1295.38 953.899 1289.42 951.585 1286.4 952.147 1282.07 955.153 1279.75 958.159 1277.42 962.472 1277.99 964.786 1281 989.034 1312.72 1034.31 1318.71 1065.9 1294.36 1070.9 1290.51 1075.38 1286.02 1079.21 1281 1081.53 1277.99 1085.84 1277.42 1088.85 1279.75 1091.85 1282.07 1092.41 1286.4 1090.1 1289.42ZM1100.09 1227.6C1096.39 1228.39 1092.74 1226.02 1091.95 1222.3 1089.6 1211.12 1078.66 1203.98 1067.53 1206.34 1059.56 1208.04 1053.32 1214.29 1051.64 1222.3 1050.71 1225.99 1046.98 1228.23 1043.3 1227.29 1039.81 1226.41 1037.6 1222.99 1038.21 1219.43 1042.17 1200.81 1060.41 1188.94 1078.96 1192.91 1092.21 1195.75 1102.56 1206.14 1105.38 1219.43 1106.17 1223.16 1103.8 1226.81 1100.09 1227.6Z" stroke="#000000" stroke-width="3.4375" stroke-miterlimit="8" fill="#FFFF00" fill-rule="evenodd"/><path d="M964.55 1067.13 964.55 1393.46" stroke="#000000" stroke-width="4.58333" stroke-linejoin="round" stroke-miterlimit="10" fill="none" fill-rule="evenodd"/><path d="M1076.28 1067.13 1076.28 1393.46" stroke="#000000" stroke-width="4.58333" stroke-linejoin="round" stroke-miterlimit="10" fill="none" fill-rule="evenodd"/><path d="M850.533 1176.67 1190.29 1176.67" stroke="#000000" stroke-width="4.58333" stroke-linejoin="round" stroke-miterlimit="10" fill="none" fill-rule="evenodd"/><path d="M850.533 1283.92 1190.29 1283.92" stroke="#000000" stroke-width="4.58333" stroke-linejoin="round" stroke-miterlimit="10" fill="none" fill-rule="evenodd"/><path d="M852.824 1067.13 852.824 1393.46" stroke="#000000" stroke-width="4.58333" stroke-linejoin="round" stroke-miterlimit="10" fill="none" fill-rule="evenodd"/><path d="M1188 1067.13 1188 1393.46" stroke="#000000" stroke-width="4.58333" stroke-linejoin="round" stroke-miterlimit="10" fill="none" fill-rule="evenodd"/><path d="M850.533 1069.42 1190.29 1069.42" stroke="#000000" stroke-width="4.58333" stroke-linejoin="round" stroke-miterlimit="10" fill="none" fill-rule="evenodd"/><path d="M850.533 1391.17 1190.29 1391.17" stroke="#000000" stroke-width="4.58333" stroke-linejoin="round" stroke-miterlimit="10" fill="none" fill-rule="evenodd"/><text font-family="Calibri,Calibri_MSFontService,sans-serif" font-weight="400" font-size="64" transform="matrix(1 0 0 1 879.245 1530)">Rest shape<tspan font-size="64" x="4.00989" y="72">+ Rest grid</tspan></text><path d="M1907 1114.5C1834.93 1114.5 1776.5 1198 1776.5 1301 1776.5 1404 1834.93 1487.5 1907 1487.5 1979.07 1487.5 2037.5 1404 2037.5 1301 2037.5 1198 1979.07 1114.5 1907 1114.5ZM1828.91 1292.61C1825.2 1291.48 1822.83 1286.27 1823.62 1280.98 1827.57 1254.47 1845.82 1237.56 1864.37 1243.21 1877.62 1247.25 1887.96 1262.04 1890.79 1280.98 1891.44 1286.32 1888.93 1291.4 1885.19 1292.32 1881.65 1293.2 1878.24 1290.03 1877.36 1285.05 1875.01 1269.14 1864.07 1258.97 1852.94 1262.34 1844.96 1264.75 1838.73 1273.65 1837.05 1285.05 1836.26 1290.35 1832.61 1293.73 1828.91 1292.61ZM1975.1 1380.61C1946.23 1434.36 1892.33 1444.48 1854.72 1403.21 1848.78 1396.69 1843.46 1389.09 1838.9 1380.61 1836.59 1376.31 1837.15 1370.15 1840.15 1366.84 1843.16 1363.53 1847.47 1364.33 1849.79 1368.63 1874.03 1413.79 1919.31 1422.3 1950.9 1387.65 1955.9 1382.17 1960.38 1375.77 1964.21 1368.63 1966.53 1364.33 1970.84 1363.53 1973.85 1366.84 1976.85 1370.15 1977.41 1376.31 1975.1 1380.61ZM1985.09 1292.61C1981.39 1293.73 1977.74 1290.35 1976.95 1285.05 1974.6 1269.14 1963.66 1258.97 1952.53 1262.34 1944.56 1264.75 1938.32 1273.65 1936.64 1285.05 1935.71 1290.31 1931.98 1293.49 1928.3 1292.17 1924.81 1290.91 1922.6 1286.03 1923.21 1280.98 1927.17 1254.47 1945.41 1237.56 1963.96 1243.21 1977.21 1247.25 1987.56 1262.04 1990.38 1280.98 1991.17 1286.27 1988.8 1291.48 1985.09 1292.61Z" stroke="#000000" stroke-width="3.4375" stroke-miterlimit="8" fill="#FFFF00" fill-rule="evenodd"/><path d="M2782 1114.5C2709.93 1114.5 2651.5 1198 2651.5 1301 2651.5 1404 2709.93 1487.5 2782 1487.5 2854.07 1487.5 2912.5 1404 2912.5 1301 2912.5 1198 2854.07 1114.5 2782 1114.5ZM2703.91 1292.61C2700.2 1291.48 2697.83 1286.27 2698.62 1280.98 2702.57 1254.47 2720.82 1237.56 2739.37 1243.21 2752.62 1247.25 2762.96 1262.04 2765.79 1280.98 2766.44 1286.32 2763.93 1291.4 2760.19 1292.32 2756.65 1293.2 2753.24 1290.03 2752.36 1285.05 2750.01 1269.14 2739.07 1258.97 2727.94 1262.34 2719.96 1264.75 2713.73 1273.65 2712.04 1285.05 2711.26 1290.35 2707.61 1293.73 2703.91 1292.61ZM2850.1 1380.61C2821.23 1434.36 2767.33 1444.48 2729.72 1403.21 2723.78 1396.69 2718.46 1389.09 2713.9 1380.61 2711.59 1376.31 2712.15 1370.15 2715.15 1366.84 2718.16 1363.53 2722.47 1364.33 2724.79 1368.63 2749.03 1413.79 2794.31 1422.3 2825.9 1387.65 2830.9 1382.17 2835.38 1375.77 2839.21 1368.63 2841.53 1364.33 2845.84 1363.53 2848.85 1366.84 2851.85 1370.15 2852.41 1376.31 2850.1 1380.61ZM2860.09 1292.61C2856.39 1293.73 2852.74 1290.35 2851.95 1285.05 2849.6 1269.14 2838.66 1258.97 2827.53 1262.34 2819.56 1264.75 2813.32 1273.65 2811.64 1285.05 2810.71 1290.31 2806.98 1293.49 2803.3 1292.17 2799.81 1290.91 2797.6 1286.03 2798.21 1280.98 2802.17 1254.47 2820.41 1237.56 2838.96 1243.21 2852.21 1247.25 2862.56 1262.04 2865.38 1280.98 2866.17 1286.27 2863.8 1291.48 2860.09 1292.61Z" stroke="#000000" stroke-width="3.4375" stroke-miterlimit="8" stroke-dasharray="13.75 10.3125" fill="#F2F2F2" fill-rule="evenodd"/><path d="M2725.68 1072.65 2725.68 1536.54" stroke="#FF0000" stroke-width="4.58333" stroke-linejoin="round" stroke-miterlimit="10" fill="none" fill-rule="evenodd"/><path d="M2837.4 1072.65 2837.4 1536.54" stroke="#FF0000" stroke-width="4.58333" stroke-linejoin="round" stroke-miterlimit="10" fill="none" fill-rule="evenodd"/><path d="M2611.66 1228.05 2951.42 1228.05" stroke="#FF0000" stroke-width="4.58333" stroke-linejoin="round" stroke-miterlimit="10" fill="none" fill-rule="evenodd"/><path d="M2611.66 1381.15 2951.42 1381.15" stroke="#FF0000" stroke-width="4.58333" stroke-linejoin="round" stroke-miterlimit="10" fill="none" fill-rule="evenodd"/><path d="M2613.95 1072.65 2613.95 1536.54" stroke="#FF0000" stroke-width="4.58333" stroke-linejoin="round" stroke-miterlimit="10" fill="none" fill-rule="evenodd"/><path d="M2949.13 1072.65 2949.13 1536.54" stroke="#FF0000" stroke-width="4.58333" stroke-linejoin="round" stroke-miterlimit="10" fill="none" fill-rule="evenodd"/><path d="M2611.66 1074.95 2951.42 1074.95" stroke="#FF0000" stroke-width="4.58333" stroke-linejoin="round" stroke-miterlimit="10" fill="none" fill-rule="evenodd"/><path d="M2611.66 1534.24 2951.42 1534.24" stroke="#FF0000" stroke-width="4.58333" stroke-linejoin="round" stroke-miterlimit="10" fill="none" fill-rule="evenodd"/><text font-family="Calibri,Calibri_MSFontService,sans-serif" font-weight="400" font-size="64" transform="matrix(1 0 0 1 1695.5 1602)">Deformed <tspan font-style="italic" font-size="64" x="276.513" y="0">shape</tspan><tspan fill="#FF0000" font-weight="700" font-size="64" x="891.946" y="0">Deformed grid</tspan></text><path d="M2222.5 1194.5 2404.5 1194.5 2404.5 1155.5 2482.5 1233.5 2404.5 1311.5 2404.5 1272.5 2222.5 1272.5Z" stroke="#000000" stroke-width="4.58333" stroke-miterlimit="8" fill="#FFFFFF" fill-rule="evenodd"/><path d="M1337.5 1201.87 1400.87 1201.87 1400.87 1138.5 1456.13 1138.5 1456.13 1201.87 1519.5 1201.87 1519.5 1257.13 1456.13 1257.13 1456.13 1320.5 1400.87 1320.5 1400.87 1257.13 1337.5 1257.13Z" stroke="#000000" stroke-width="4.58333" stroke-miterlimit="8" fill="#FFFFFF" fill-rule="evenodd"/></g></svg>