<svg width="2994" height="625" xmlns="http://www.w3.org/2000/svg" xmlns:xlink="http://www.w3.org/1999/xlink" overflow="hidden"><defs><clipPath id="clip0"><rect x="106" y="415" width="2994" height="625"/></clipPath><clipPath id="clip1"><path d="M1366.67 698.665 1444.98 727.102 1416.54 805.418 1338.23 776.981Z" fill-rule="evenodd" clip-rule="evenodd"/></clipPath><clipPath id="clip2"><path d="M1366.67 698.665 1444.98 727.102 1416.54 805.418 1338.23 776.981Z" fill-rule="evenodd" clip-rule="evenodd"/></clipPath><clipPath id="clip3"><path d="M1366.67 698.665 1444.98 727.102 1416.54 805.418 1338.23 776.981Z" fill-rule="evenodd" clip-rule="evenodd"/></clipPath><clipPath id="clip4"><rect x="1403" y="712" width="122" height="122"/></clipPath><clipPath id="clip5"><rect x="1403" y="712" width="122" height="122"/></clipPath><clipPath id="clip6"><rect x="1403" y="712" width="122" height="122"/></clipPath></defs><g clip-path="url(#clip0)" transform="translate(-106 -415)"><path d="M120.5 446.023C120.5 430.27 133.27 417.5 149.023 417.5L3068.98 417.5C3084.73 417.5 3097.5 430.27 3097.5 446.023L3097.5 998.977C3097.5 1014.73 3084.73 1027.5 3068.98 1027.5L149.023 1027.5C133.27 1027.5 120.5 1014.73 120.5 998.977Z" stroke="#000000" stroke-width="4.58333" stroke-miterlimit="8" fill="#FFFFFF" fill-rule="evenodd"/><text font-family="Calibri,Calibri_MSFontService,sans-serif" font-weight="400" font-size="92" transform="matrix(1 0 0 1 161.596 753)">(forward) FFD</text><path d="M1022 484.5C949.927 484.5 891.5 543.151 891.5 615.5 891.5 687.849 949.927 746.5 1022 746.5 1094.07 746.5 1152.5 687.849 1152.5 615.5 1152.5 543.151 1094.07 484.5 1022 484.5ZM943.906 609.605C940.2 608.812 937.833 605.156 938.617 601.435 942.574 582.815 960.818 570.939 979.368 574.911 992.615 577.748 1002.96 588.136 1005.79 601.435 1006.44 605.187 1003.93 608.754 1000.19 609.404 996.654 610.018 993.241 607.792 992.363 604.296 990.006 593.12 979.071 585.977 967.938 588.342 959.963 590.036 953.732 596.291 952.045 604.296 951.255 608.016 947.614 610.392 943.906 609.605ZM1090.1 671.417C1061.23 709.171 1007.33 716.281 969.717 687.295 963.777 682.717 958.46 677.379 953.899 671.417 951.585 668.398 952.147 664.069 955.153 661.747 958.159 659.424 962.472 659.987 964.786 663.005 989.034 694.724 1034.31 700.706 1065.9 676.365 1070.9 672.514 1075.38 668.023 1079.21 663.005 1081.53 659.987 1085.84 659.424 1088.85 661.747 1091.85 664.069 1092.41 668.398 1090.1 671.417ZM1100.09 609.605C1096.39 610.392 1092.74 608.016 1091.95 604.296 1089.6 593.12 1078.66 585.977 1067.53 588.342 1059.56 590.036 1053.32 596.291 1051.64 604.296 1050.71 607.988 1046.98 610.226 1043.3 609.295 1039.81 608.413 1037.6 604.987 1038.21 601.435 1042.17 582.815 1060.41 570.939 1078.96 574.911 1092.21 577.748 1102.56 588.136 1105.38 601.435 1106.17 605.156 1103.8 608.812 1100.09 609.605Z" stroke="#000000" stroke-width="3.4375" stroke-miterlimit="8" fill="#FFFF00" fill-rule="evenodd"/><path d="M964.55 448.984 964.55 775.317" stroke="#000000" stroke-width="4.58333" stroke-linejoin="round" stroke-miterlimit="10" fill="none" fill-rule="evenodd"/><path d="M1076.28 448.984 1076.28 775.317" stroke="#000000" stroke-width="4.58333" stroke-linejoin="round" stroke-miterlimit="10" fill="none" fill-rule="evenodd"/><path d="M850.533 558.525 1190.29 558.525" stroke="#000000" stroke-width="4.58333" stroke-linejoin="round" stroke-miterlimit="10" fill="none" fill-rule="evenodd"/><path d="M850.533 665.775 1190.29 665.775" stroke="#000000" stroke-width="4.58333" stroke-linejoin="round" stroke-miterlimit="10" fill="none" fill-rule="evenodd"/><path d="M852.824 448.984 852.824 775.317" stroke="#000000" stroke-width="4.58333" stroke-linejoin="round" stroke-miterlimit="10" fill="none" fill-rule="evenodd"/><path d="M1188 448.984 1188 775.317" stroke="#000000" stroke-width="4.58333" stroke-linejoin="round" stroke-miterlimit="10" fill="none" fill-rule="evenodd"/><path d="M850.533 451.275 1190.29 451.275" stroke="#000000" stroke-width="4.58333" stroke-linejoin="round" stroke-miterlimit="10" fill="none" fill-rule="evenodd"/><path d="M850.533 773.025 1190.29 773.025" stroke="#000000" stroke-width="4.58333" stroke-linejoin="round" stroke-miterlimit="10" fill="none" fill-rule="evenodd"/><path d="M2782 496.5C2709.93 496.5 2651.5 579.999 2651.5 683 2651.5 786.001 2709.93 869.5 2782 869.5 2854.07 869.5 2912.5 786.001 2912.5 683 2912.5 579.999 2854.07 496.5 2782 496.5ZM2703.91 674.607C2700.2 673.479 2697.83 668.274 2698.62 662.976 2702.57 636.467 2720.82 619.56 2739.37 625.215 2752.62 629.253 2762.96 644.043 2765.79 662.976 2766.44 668.317 2763.93 673.396 2760.19 674.321 2756.65 675.195 2753.24 672.026 2752.36 667.049 2750.01 651.138 2739.07 640.97 2727.94 644.336 2719.96 646.748 2713.73 655.652 2712.04 667.049 2711.26 672.346 2707.61 675.728 2703.91 674.607ZM2850.1 762.606C2821.23 816.356 2767.33 826.477 2729.72 785.212 2723.78 778.694 2718.46 771.095 2713.9 762.606 2711.59 758.309 2712.15 752.146 2715.15 748.839 2718.16 745.532 2722.47 746.334 2724.79 750.631 2749.03 795.789 2794.31 804.304 2825.9 769.651 2830.9 764.169 2835.38 757.775 2839.21 750.631 2841.53 746.334 2845.84 745.532 2848.85 748.839 2851.85 752.146 2852.41 758.309 2850.1 762.606ZM2860.09 674.607C2856.39 675.728 2852.74 672.346 2851.95 667.049 2849.6 651.138 2838.66 640.97 2827.53 644.336 2819.56 646.748 2813.32 655.652 2811.64 667.049 2810.71 672.306 2806.98 675.492 2803.3 674.166 2799.81 672.91 2797.6 668.033 2798.21 662.976 2802.17 636.467 2820.41 619.56 2838.96 625.214 2852.21 629.253 2862.56 644.043 2865.38 662.976 2866.17 668.274 2863.8 673.479 2860.09 674.607Z" stroke="#000000" stroke-width="3.4375" stroke-miterlimit="8" fill="#FFFF00" fill-rule="evenodd"/><path d="M1854.55 447.708 1854.55 911.59" stroke="#000000" stroke-width="4.58333" stroke-linejoin="round" stroke-miterlimit="10" fill="none" fill-rule="evenodd"/><path d="M1966.28 447.708 1966.28 911.59" stroke="#000000" stroke-width="4.58333" stroke-linejoin="round" stroke-miterlimit="10" fill="none" fill-rule="evenodd"/><path d="M1740.53 603.1 2080.29 603.1" stroke="#000000" stroke-width="4.58333" stroke-linejoin="round" stroke-miterlimit="10" fill="none" fill-rule="evenodd"/><path d="M1740.53 756.199 2080.29 756.199" stroke="#000000" stroke-width="4.58333" stroke-linejoin="round" stroke-miterlimit="10" fill="none" fill-rule="evenodd"/><path d="M1742.82 447.708 1742.82 911.59" stroke="#000000" stroke-width="4.58333" stroke-linejoin="round" stroke-miterlimit="10" fill="none" fill-rule="evenodd"/><path d="M2078 447.708 2078 911.59" stroke="#000000" stroke-width="4.58333" stroke-linejoin="round" stroke-miterlimit="10" fill="none" fill-rule="evenodd"/><path d="M1740.53 450 2080.29 450" stroke="#000000" stroke-width="4.58333" stroke-linejoin="round" stroke-miterlimit="10" fill="none" fill-rule="evenodd"/><path d="M1740.53 909.299 2080.29 909.299" stroke="#000000" stroke-width="4.58333" stroke-linejoin="round" stroke-miterlimit="10" fill="none" fill-rule="evenodd"/><text font-family="Calibri,Calibri_MSFontService,sans-serif" font-weight="400" font-size="64" transform="matrix(1 0 0 1 879.245 912)">Rest shape<tspan font-size="64" x="4.00989" y="72">+ Rest grid</tspan><tspan font-size="64" x="842.208" y="72">Deformed grid</tspan><tspan font-size="64" x="1686.02" y="72">Deformed </tspan><tspan font-style="italic" font-size="64" x="1962.54" y="72">shape</tspan></text><path d="M1332.5 566.5 1514.5 566.5 1514.5 527.5 1592.5 605.5 1514.5 683.5 1514.5 644.5 1332.5 644.5Z" stroke="#000000" stroke-width="4.58333" stroke-miterlimit="8" fill="#FFFFFF" fill-rule="evenodd"/><path d="M2222.5 566.5 2404.5 566.5 2404.5 527.5 2482.5 605.5 2404.5 683.5 2404.5 644.5 2222.5 644.5Z" stroke="#000000" stroke-width="4.58333" stroke-miterlimit="8" fill="#FFFFFF" fill-rule="evenodd"/><path d="M2725.29 454.295 2725.29 918.177" stroke="#BFBFBF" stroke-width="4.58333" stroke-linejoin="round" stroke-miterlimit="10" stroke-dasharray="18.3333 13.75" fill="none" fill-rule="evenodd"/><path d="M2837.02 454.295 2837.02 918.177" stroke="#BFBFBF" stroke-width="4.58333" stroke-linejoin="round" stroke-miterlimit="10" stroke-dasharray="18.3333 13.75" fill="none" fill-rule="evenodd"/><path d="M2611.28 609.686 2951.04 609.686" stroke="#BFBFBF" stroke-width="4.58333" stroke-linejoin="round" stroke-miterlimit="10" stroke-dasharray="18.3333 13.75" fill="none" fill-rule="evenodd"/><path d="M2611.28 762.786 2951.04 762.786" stroke="#BFBFBF" stroke-width="4.58333" stroke-linejoin="round" stroke-miterlimit="10" stroke-dasharray="18.3333 13.75" fill="none" fill-rule="evenodd"/><path d="M2613.57 454.295 2613.57 918.177" stroke="#BFBFBF" stroke-width="4.58333" stroke-linejoin="round" stroke-miterlimit="10" stroke-dasharray="18.3333 13.75" fill="none" fill-rule="evenodd"/><path d="M2948.74 454.295 2948.74 918.177" stroke="#BFBFBF" stroke-width="4.58333" stroke-linejoin="round" stroke-miterlimit="10" stroke-dasharray="18.3333 13.75" fill="none" fill-rule="evenodd"/><path d="M2611.28 456.587 2951.04 456.587" stroke="#BFBFBF" stroke-width="4.58333" stroke-linejoin="round" stroke-miterlimit="10" stroke-dasharray="18.3333 13.75" fill="none" fill-rule="evenodd"/><path d="M2611.28 915.885 2951.04 915.885" stroke="#BFBFBF" stroke-width="4.58333" stroke-linejoin="round" stroke-miterlimit="10" stroke-dasharray="18.3333 13.75" fill="none" fill-rule="evenodd"/><g clip-path="url(#clip1)"><g clip-path="url(#clip2)"><g clip-path="url(#clip3)"><path d="M1408.79 775.917 1398.29 753.463 1414.71 753.506C1415.55 753.521 1416.24 752.853 1416.26 752.014 1416.26 751.546 1416.06 751.1 1415.69 750.806L1378.91 721.663C1378.78 721.559 1378.63 721.477 1378.48 721.421L1378.48 721.421C1377.69 721.153 1376.83 721.576 1376.56 722.366 1376.51 722.512 1376.48 722.665 1376.48 722.82L1375.19 769.756C1375.18 770.595 1375.86 771.281 1376.7 771.288 1377.16 771.292 1377.59 771.088 1377.88 770.734L1388.4 758.098 1398.88 780.539Z" stroke="#000000" stroke-width="5.55462" fill="#FFFFFF"/></g></g></g><g clip-path="url(#clip4)"><g clip-path="url(#clip5)"><g clip-path="url(#clip6)"><path d="M1464.5 743.25C1462.36 743.298 1460.67 745.068 1460.72 747.204L1460.72 758.375C1460.72 760.463 1462.41 762.156 1464.5 762.156 1466.59 762.156 1468.28 760.463 1468.28 758.375L1468.28 747.204C1468.33 745.068 1466.64 743.298 1464.5 743.25Z" stroke="#000000" stroke-width="4.60952" fill="#FFFFFF"/><path d="M1495 790.814C1494.16 784.065 1493.68 777.276 1493.56 770.475 1493.56 764.929 1493.81 759.703 1494.18 755.017 1495.46 739.424 1483.86 725.745 1468.26 724.465 1467.9 724.435 1467.53 724.412 1467.16 724.397 1466.26 724.361 1465.34 724.344 1464.41 724.344 1463.47 724.344 1462.56 724.361 1461.66 724.397 1446.02 725.069 1433.9 738.286 1434.57 753.917 1434.59 754.283 1434.61 754.648 1434.64 755.013 1435.01 759.7 1435.26 764.929 1435.26 770.475 1435.14 777.277 1434.66 784.068 1433.81 790.818 1431.88 807.044 1443.47 821.763 1459.7 823.693 1460.44 823.782 1461.18 823.842 1461.93 823.874 1462.74 823.901 1463.57 823.916 1464.41 823.917 1465.25 823.917 1466.08 823.903 1466.89 823.874 1483.22 823.174 1495.88 809.373 1495.18 793.048 1495.15 792.302 1495.09 791.556 1495 790.814ZM1473.32 758.375C1473.34 762.319 1470.78 765.814 1467.02 766.992L1467.02 786.104C1467.02 787.496 1465.89 788.625 1464.5 788.625 1463.11 788.625 1461.98 787.496 1461.98 786.104L1461.98 766.992C1458.22 765.813 1455.66 762.319 1455.68 758.375L1455.68 747.205C1455.66 743.26 1458.21 739.765 1461.98 738.586L1461.98 731.906C1461.98 730.514 1463.11 729.385 1464.5 729.385 1465.89 729.385 1467.02 730.514 1467.02 731.906L1467.02 738.586C1470.78 739.766 1473.34 743.261 1473.32 747.205Z" stroke="#000000" stroke-width="4.60952" fill="#FFFFFF"/></g></g></g></g></svg>