<svg width="437" height="343" xmlns="http://www.w3.org/2000/svg" xmlns:xlink="http://www.w3.org/1999/xlink" overflow="hidden"><defs><clipPath id="clip0"><rect x="81" y="86" width="437" height="343"/></clipPath></defs><g clip-path="url(#clip0)" transform="translate(-81 -86)"><rect x="156.5" y="132.5" width="252" height="251" stroke="#000000" stroke-width="1.33333" stroke-miterlimit="8" fill="#FFFFFF"/><path d="M146 131.5C146 125.701 150.477 121 156 121 161.523 121 166 125.701 166 131.5 166 137.299 161.523 142 156 142 150.477 142 146 137.299 146 131.5Z" stroke="#000000" stroke-width="2" stroke-miterlimit="8" fill="#4472C4" fill-rule="evenodd"/><path d="M398 131.5C398 125.701 402.477 121 408 121 413.523 121 418 125.701 418 131.5 418 137.299 413.523 142 408 142 402.477 142 398 137.299 398 131.5Z" stroke="#000000" stroke-width="2" stroke-miterlimit="8" fill="#ED7D31" fill-rule="evenodd"/><path d="M398 383.5C398 377.701 402.477 373 408 373 413.523 373 418 377.701 418 383.5 418 389.299 413.523 394 408 394 402.477 394 398 389.299 398 383.5Z" stroke="#000000" stroke-width="2" stroke-miterlimit="8" fill="#70AD47" fill-rule="evenodd"/><path d="M146 383.5C146 377.701 150.477 373 156 373 161.523 373 166 377.701 166 383.5 166 389.299 161.523 394 156 394 150.477 394 146 389.299 146 383.5Z" stroke="#000000" stroke-width="2" stroke-miterlimit="8" fill="#FFC000" fill-rule="evenodd"/><path d="M254.5 132.5 254.5 384.469" stroke="#000000" stroke-miterlimit="8" stroke-dasharray="4 3" fill="none" fill-rule="evenodd"/><path d="M156.5 251.5 408.469 251.5" stroke="#000000" stroke-miterlimit="8" stroke-dasharray="4 3" fill="none" fill-rule="evenodd"/><path d="M242.408 243.005 245.806 239.69 254.5 248.601 263.194 239.69 266.592 243.005 257.816 252 266.592 260.995 263.194 264.311 254.5 255.399 245.806 264.311 242.408 260.995 251.184 252Z" stroke="#000000" stroke-width="1.33333" stroke-miterlimit="8" fill="#FFFFFF" fill-rule="evenodd"/><text font-family="Cambria Math,Cambria Math_MSFontService,sans-serif" font-weight="400" font-size="25" transform="translate(108.487 110)">𝐵<tspan font-size="18" x="15.24" y="6">(</tspan><tspan font-size="18" x="22.74" y="6">𝑖</tspan><tspan font-size="18" x="29.6933" y="6">,</tspan><tspan font-size="18" x="33.36" y="6">𝑗</tspan><tspan font-size="18" x="42.48" y="6">)</tspan><tspan font-size="25" x="292.746" y="0">𝐵</tspan><tspan font-size="18" x="307.986" y="6">(</tspan><tspan font-size="18" x="315.486" y="6">𝑖</tspan><tspan font-size="18" x="322.439" y="6">+</tspan><tspan font-size="18" x="335.606" y="6">1</tspan><tspan font-size="18" x="346.106" y="6">,</tspan><tspan font-size="18" x="349.773" y="6">𝑗</tspan><tspan font-size="18" x="358.893" y="6">)</tspan><tspan font-size="25" x="-23.9233" y="310">𝐵</tspan><tspan font-size="18" x="-8.6833" y="315">(</tspan><tspan font-size="18" x="-1.1833" y="315">𝑖</tspan><tspan font-size="18" x="5.77003" y="315">,</tspan><tspan font-size="18" x="9.4367" y="315">𝑗</tspan><tspan font-size="18" x="18.5567" y="315">+</tspan><tspan font-size="18" x="31.7234" y="315">1</tspan><tspan font-size="18" x="42.2234" y="315">)</tspan><tspan font-size="25" x="292.913" y="310">𝐵</tspan><tspan font-size="18" x="308.153" y="315">(</tspan><tspan font-size="18" x="315.653" y="315">𝑖</tspan><tspan font-size="18" x="322.606" y="315">+</tspan><tspan font-size="18" x="335.773" y="315">1</tspan><tspan font-size="18" x="346.273" y="315">,</tspan><tspan font-size="18" x="349.939" y="315">𝑗</tspan><tspan font-size="18" x="359.059" y="315">+</tspan><tspan font-size="18" x="372.226" y="315">1</tspan><tspan font-size="18" x="382.726" y="315">)</tspan></text><path d="M170.749 149.278 236.693 223.058 236.196 223.502 170.252 149.722ZM238.539 219.62 244.442 232.227 232.574 224.951Z"/><path d="M0.268789-0.197139 62.3569 84.4568 61.8193 84.8511-0.268789 0.197139ZM64.525 81.2131 69.1851 94.3303 58.0741 85.9444Z" transform="matrix(1 0 0 -1 170.5 366.83)"/><text font-family="Cambria Math,Cambria Math_MSFontService,sans-serif" font-weight="400" font-size="16" transform="translate(204.796 409)">𝑤<tspan font-size="12" x="11.3" y="3">𝑖</tspan><tspan font-size="16" x="71.8524" y="-1">𝑤</tspan><tspan font-size="12" x="83.1524" y="2">𝑖</tspan><tspan font-size="12" x="87.7191" y="2">+</tspan><tspan font-size="12" x="96.2191" y="2">1</tspan><tspan font-size="16" x="108.166" y="-1">=</tspan><tspan font-size="16" x="124.612" y="-1">1</tspan><tspan font-size="16" x="136.999" y="-1">−</tspan><tspan font-size="16" x="152.552" y="-1">𝑤</tspan><tspan font-size="12" x="163.852" y="2">𝑖</tspan><tspan font-size="16" x="214.268" y="-208">𝑤</tspan><tspan font-size="12" x="224.142" y="-205">𝑗</tspan><tspan font-size="16" x="213.072" y="-86">𝑤</tspan><tspan font-size="12" x="222.946" y="-82">𝑗</tspan><tspan font-size="12" x="228.846" y="-82">+</tspan><tspan font-size="12" x="237.346" y="-82">1</tspan><tspan font-size="16" x="249.292" y="-86">=</tspan><tspan font-size="16" x="265.739" y="-86">1</tspan><tspan font-size="16" x="278.126" y="-86">−</tspan><tspan font-size="16" x="293.679" y="-86">𝑤</tspan><tspan font-size="12" x="303.552" y="-82">𝑗</tspan></text><path d="M0.198836-0.267536 104.321 77.1176 103.924 77.6526-0.198836 0.267536ZM105.438 73.3793 113.754 84.5432 100.666 79.8002Z" transform="matrix(-1 0 0 1 388.254 149.5)"/><path d="M389.426 366.961 282.529 278.412 282.954 277.898 389.851 366.447ZM281.216 282.086 273.5 270.5 286.32 275.925Z"/></g></svg>